<svg xmlns="http://www.w3.org/2000/svg" viewBox="0 0 24 24" width="24" height="24" fill="none" stroke="#000" stroke-width="2" stroke-linecap="round" stroke-linejoin="round">
  <path d="M12 4c-1.8 4-5.5 6-5.5 10.5a5.5 5.5 0 0010.5 1.6c.3-1.5-.4-3.8-1.6-5.4-.5 1.5-2 2.8-3 1.6-.9-1 .5-3.2 1.5-5-.5.5-1.5 1-1.5 1"/>
  <path d="M12 16c-.5-1.8-2-2.5-2-4.5a2 2 0 014 0c0 2-1.5 2.7-2 4.5"/>
  <circle cx="12" cy="13" r="0.7"/>
  <path d="M12 0v2.5M1 5l2.5 1.5M23 5l-2.5 1.5M-.5 11.5H2.5M21.5 11.5h3M1 18l2.5-1.5M23 18l-2.5-1.5M5.5 1.5l1.5 2M18.5 1.5l-1.5 2M4 21l2-1.5M20 21l-2-1.5M8 22.5l.8-2M16 22.5l-.8-2"/>
</svg>
