<svg xmlns="http://www.w3.org/2000/svg" viewBox="0 0 24 24" width="24" height="24" fill="none" stroke="#000" stroke-width="2" stroke-linecap="round" stroke-linejoin="round">
  <path d="M12 4.5c-1.5 4-5 5.5-5 10a5 5 0 009.5 1.5c.3-1.5-.4-3.5-1.5-5-.5 1.5-1.8 2.5-2.8 1.5-.8-1 .4-3 1.3-4.5-.4.4-1.2.8-1.2.8"/>
  <path d="M12 15.5c-.5-1.5-1.5-2-1.5-3.5a1.5 1.5 0 013 0c0 1.5-1 2-1.5 3.5"/>
  <path d="M12 .5v2.5M2.5 5l2.2 1.3M21.5 5l-2.2 1.3M1 11.5h2.5M20.5 11.5H23M2.5 17.5l2.2-1.3M21.5 17.5l-2.2-1.3M6.5 2.5l1.2 1.8M17.5 2.5l-1.2 1.8M5 20.5l1.5-1.2M19 20.5l-1.5-1.2"/>
</svg>
